<svg xmlns="http://www.w3.org/2000/svg" viewBox="0 0 32 32">
  <defs>
    <linearGradient id="g1" x1="0" y1="0" x2="1" y2="1">
      <stop offset="0%" stop-color="#4488ff"/>
      <stop offset="100%" stop-color="#2266dd"/>
    </linearGradient>
    <linearGradient id="g2" x1="1" y1="0" x2="0" y2="1">
      <stop offset="0%" stop-color="#4488ff"/>
      <stop offset="100%" stop-color="#2266dd"/>
    </linearGradient>
  </defs>
  <!-- left sigma lobe -->
  <path d="M10 18 Q6 16 6 12 Q6 8 10 6 Q12 5 14 6 Q18 8 18 14 Q18 18 14 20 Q12 21 10 20 Z" fill="url(#g1)" opacity="0.9"/>
  <!-- right sigma lobe -->
  <path d="M22 14 Q26 16 26 20 Q26 24 22 26 Q20 27 18 26 Q14 24 14 18 Q14 14 18 12 Q20 11 22 12 Z" fill="url(#g2)" opacity="0.9"/>
  <!-- atom spheres -->
  <circle cx="10" cy="10" r="3" fill="#909090"/>
  <circle cx="22" cy="22" r="3" fill="#909090"/>
</svg>
